<svg xmlns="http://www.w3.org/2000/svg" width="256" height="256" viewBox="0 0 256 256">
  <circle cx="128" cy="128" r="128" fill="#20232a"/>
  <g fill="#61dafb">
    <path d="M185.6 85.7c-14.3 16.7-33.8 35.1-57.6 48.4-24.1-13.5-43.8-32-57.6-48.6-2.1 1.9-4.3 4.1-6.4 6.3C18.4 125.2 6.4 170.6 6.4 186c0 7.6 6.1 13.7 13.7 13.7h219.8c7.6 0 13.7-6.1 13.7-13.7 0-15.4-12-60.8-66.4-94-2.2-2.3-4.5-4.6-6.7-6.5"/>
    <path d="M76.8 142.4c-1.6-5.9-3-11.7-4.4-17.6 17.4-9.8 38.2-19.2 62-19.2 23.9 0 44.8 9.4 62.3 19.2-1.5 5.8-2.9 11.7-4.5 17.6-18.7 10.6-40.7 20.1-63.4 20.1-22.7 0-44.6-9.5-63.3-20.1Z"/>
    <path d="M50.4 155.3c-1.6-5.9-3.1-11.9-4.4-17.7 16-9.1 34.9-17.6 56.8-17.6 22 0 40.9 8.5 56.9 17.6-1.3 5.8-2.8 11.8-4.4 17.7-16.2 9.2-36 16.9-58.6 16.9-22.5 0-42.3-7.7-58.6-16.9Z"/>
    <path d="M25.6 170c-1.5-6.1-2.9-12.3-4.1-18.7 12.6-7 26.6-13.1 42.1-16.3-1.3 5.8-2.7 11.7-4 17.6-15.7 9-34.5 16.2-55.3 16.2-1.1 0-2.2 0-3.3-.1 1.3 6.4 2.9 12.9 4.8 19.3Z"/>
    <path d="M230.4 170c1.5-6.1 2.9-12.3 4.1-18.7-12.6-7-26.6-13.1-42.1-16.3 1.3 5.8 2.7 11.7 4 17.6 15.7 9 34.5 16.2 55.3 16.2 1.1 0 2.2 0 3.3-.1-1.3 6.4-2.9 12.9-4.8 19.3Z"/>
  </g>
</svg>